<svg width="144" height="87" viewBox="0 0 144 87" fill="none" xmlns="http://www.w3.org/2000/svg">
<path d="M80.2468 20.3724L73.7093 20.3146C73.5489 20.3132 73.3912 20.3241 73.2366 20.3451C73.248 20.2401 73.2544 20.1345 73.2556 20.0268L73.3129 13.489C73.3144 13.3493 73.3053 13.2116 73.2899 13.0757L80.1888 13.1328C81.9946 13.1488 83.4708 11.6983 83.4869 9.89319L83.5443 3.35562C83.5602 1.55025 82.1098 0.0736387 80.3046 0.0574619L73.7326 0.000130116C71.9274 -0.0158088 70.4511 1.43463 70.4351 3.23977L70.3773 9.77733C70.3757 9.91769 70.3847 10.0554 70.4006 10.191L63.5357 10.1337C61.7306 10.1178 60.2542 11.5687 60.2383 13.3738L60.1802 19.9114C60.1643 21.7165 61.6147 23.1929 63.4199 23.2088L69.9574 23.2666C70.1183 23.2683 70.2755 23.2574 70.4301 23.2362C70.4192 23.3411 70.4128 23.4474 70.4116 23.5547L70.3538 30.0923C70.3533 30.1296 70.3547 30.1667 70.3557 30.2036L63.5234 30.1482C61.7185 30.1323 60.2419 31.5832 60.2257 33.3883L60.1683 39.9259C60.1524 41.731 61.6028 43.2074 63.408 43.2233L69.975 43.2811C71.7807 43.2973 73.257 41.8469 73.273 40.041L73.3303 33.5035C73.3308 33.4666 73.3298 33.4292 73.3289 33.3924L80.131 33.4475C81.9366 33.4637 83.413 32.0133 83.4289 30.2077L83.4862 23.6706C83.5024 21.8647 82.052 20.3886 80.2468 20.3724V20.3724Z" fill="#DB364A"/>
<path d="M12.333 60.6129C12.2591 59.8676 11.9419 59.2886 11.3813 58.8759C10.8208 58.4631 10.0601 58.2568 9.09916 58.2568C8.44623 58.2568 7.89494 58.3492 7.44528 58.534C6.99562 58.7126 6.65067 58.9621 6.41044 59.2824C6.17637 59.6027 6.05934 59.9661 6.05934 60.3727C6.04702 60.7115 6.11786 61.0071 6.27185 61.2597C6.432 61.5122 6.65067 61.7309 6.92786 61.9157C7.20505 62.0943 7.52535 62.2514 7.88878 62.3869C8.2522 62.5163 8.64027 62.6271 9.05297 62.7195L10.7531 63.1261C11.5785 63.3109 12.3361 63.5572 13.026 63.8652C13.7159 64.1732 14.3134 64.552 14.8185 65.0017C15.3236 65.4514 15.7147 65.9811 15.9919 66.5909C16.2752 67.2007 16.42 67.8999 16.4262 68.6883C16.42 69.8463 16.1243 70.8504 15.5392 71.7004C14.9601 72.5443 14.1224 73.2003 13.026 73.6684C11.9357 74.1304 10.6206 74.3614 9.08069 74.3614C7.55307 74.3614 6.22257 74.1273 5.08918 73.6592C3.96195 73.1911 3.08111 72.4981 2.44666 71.5803C1.81837 70.6563 1.48882 69.5137 1.45802 68.1524H5.32941C5.37253 68.7869 5.55424 69.3166 5.87455 69.7416C6.20101 70.1605 6.63527 70.4777 7.17733 70.6933C7.72555 70.9027 8.3446 71.0074 9.03449 71.0074C9.71206 71.0074 10.3003 70.9089 10.7992 70.7118C11.3043 70.5147 11.6955 70.2405 11.9727 69.8894C12.2499 69.5383 12.3885 69.1349 12.3885 68.6791C12.3885 68.254 12.2622 67.8968 12.0096 67.6073C11.7632 67.3178 11.3998 67.0714 10.9194 66.8681C10.4451 66.6648 9.86297 66.48 9.17308 66.3137L7.11265 65.7963C5.51728 65.4082 4.25762 64.8015 3.33366 63.9761C2.4097 63.1507 1.9508 62.0389 1.95696 60.6406C1.9508 59.4949 2.25571 58.4939 2.87168 57.6377C3.49381 56.7815 4.34693 56.1132 5.43105 55.6328C6.51516 55.1523 7.7471 54.9121 9.12688 54.9121C10.5313 54.9121 11.7571 55.1523 12.8042 55.6328C13.8576 56.1132 14.6768 56.7815 15.262 57.6377C15.8471 58.4939 16.149 59.4857 16.1675 60.6129H12.333ZM21.4733 79.4155C20.9744 79.4155 20.5062 79.3754 20.0689 79.2954C19.6377 79.2214 19.2804 79.126 18.9971 79.0089L19.8841 76.0707C20.3461 76.2124 20.7618 76.2894 21.1314 76.3017C21.5072 76.314 21.8306 76.2278 22.1016 76.043C22.3788 75.8582 22.6036 75.5441 22.7761 75.1006L23.0071 74.5L17.916 59.9014H22.0554L24.9936 70.3237H25.1414L28.1073 59.9014H32.2744L26.7583 75.6272C26.4935 76.391 26.1331 77.0563 25.6773 77.623C25.2276 78.1958 24.6579 78.6363 23.968 78.9442C23.2781 79.2584 22.4465 79.4155 21.4733 79.4155ZM38.2247 65.8887V74.0935H34.2886V59.9014H38.0399V62.4054H38.2062C38.5203 61.58 39.047 60.927 39.7862 60.4466C40.5253 59.96 41.4216 59.7167 42.4749 59.7167C43.4604 59.7167 44.3197 59.9322 45.0527 60.3634C45.7857 60.7946 46.3555 61.4106 46.7621 62.2113C47.1686 63.0059 47.3719 63.9545 47.3719 65.0571V74.0935H43.4358V65.7593C43.442 64.8908 43.2202 64.2133 42.7705 63.7266C42.3209 63.2339 41.7018 62.9875 40.9134 62.9875C40.3837 62.9875 39.9155 63.1014 39.509 63.3293C39.1086 63.5572 38.7944 63.8899 38.5665 64.3272C38.3448 64.7584 38.2308 65.2789 38.2247 65.8887ZM58.0228 59.9014V62.8581H49.4762V59.9014H58.0228ZM51.4165 56.5013H55.3526V69.7324C55.3526 70.0958 55.408 70.3791 55.5189 70.5824C55.6298 70.7795 55.7837 70.9181 55.9809 70.9982C56.1841 71.0783 56.4182 71.1183 56.6831 71.1183C56.8679 71.1183 57.0526 71.1029 57.2374 71.0721C57.4222 71.0352 57.5639 71.0074 57.6625 70.989L58.2815 73.9179C58.0844 73.9795 57.8072 74.0503 57.45 74.1304C57.0927 74.2167 56.6584 74.269 56.1472 74.2875C55.1986 74.3244 54.367 74.1982 53.6525 73.9087C52.9441 73.6192 52.3928 73.1695 51.9986 72.5597C51.6044 71.9499 51.4103 71.1799 51.4165 70.2498V56.5013ZM66.9021 74.3706C65.4422 74.3706 64.1856 74.075 63.1323 73.4836C62.0851 72.8862 61.2782 72.0423 60.7115 70.952C60.1448 69.8556 59.8615 68.5589 59.8615 67.0621C59.8615 65.6023 60.1448 64.3211 60.7115 63.2185C61.2782 62.1159 62.0759 61.2566 63.1046 60.6406C64.1394 60.0246 65.3529 59.7167 66.745 59.7167C67.6813 59.7167 68.5529 59.8676 69.3598 60.1694C70.1729 60.4651 70.8812 60.9116 71.4849 61.5091C72.0947 62.1066 72.569 62.8581 72.9078 63.7636C73.2466 64.6629 73.416 65.7162 73.416 66.9235V68.0046H61.4322V65.5653H69.7109C69.7109 64.9986 69.5877 64.4966 69.3413 64.0593C69.0949 63.6219 68.7531 63.2801 68.3157 63.0337C67.8845 62.7811 67.3825 62.6548 66.8097 62.6548C66.2122 62.6548 65.6824 62.7934 65.2204 63.0706C64.7646 63.3417 64.4074 63.7082 64.1487 64.1701C63.8899 64.626 63.7575 65.1341 63.7514 65.6947V68.0138C63.7514 68.716 63.8807 69.3228 64.1394 69.834C64.4043 70.3453 64.7769 70.7395 65.2574 71.0167C65.7379 71.2939 66.3076 71.4325 66.9667 71.4325C67.4041 71.4325 67.8045 71.3709 68.1679 71.2477C68.5313 71.1245 68.8424 70.9397 69.1011 70.6933C69.3598 70.4469 69.5569 70.1451 69.6924 69.7878L73.3328 70.028C73.148 70.9027 72.7692 71.6665 72.1963 72.3195C71.6296 72.9662 70.8966 73.4713 69.9973 73.8348C69.1042 74.192 68.0724 74.3706 66.9021 74.3706ZM75.9846 74.0935V59.9014H79.8005V62.3777H79.9484C80.2071 61.4968 80.6413 60.8316 81.2511 60.3819C81.861 59.9261 82.5632 59.6982 83.3578 59.6982C83.5549 59.6982 83.7674 59.7105 83.9953 59.7351C84.2232 59.7598 84.4234 59.7937 84.5959 59.8368V63.3293C84.4111 63.2739 84.1555 63.2246 83.829 63.1815C83.5025 63.1384 83.2038 63.1168 82.9327 63.1168C82.3537 63.1168 81.8363 63.2431 81.3805 63.4956C80.9308 63.742 80.5736 64.087 80.3087 64.5305C80.05 64.974 79.9206 65.4852 79.9206 66.0643V74.0935H75.9846Z" fill="#DB364A"/>
<path d="M86.7048 74.0935V55.1708H90.7056V62.9782H98.8272V55.1708H102.819V74.0935H98.8272V66.2768H90.7056V74.0935H86.7048ZM112.511 74.3706C111.051 74.3706 109.795 74.075 108.741 73.4836C107.694 72.8862 106.887 72.0423 106.32 70.952C105.754 69.8556 105.47 68.5589 105.47 67.0621C105.47 65.6023 105.754 64.3211 106.32 63.2185C106.887 62.1159 107.685 61.2566 108.714 60.6406C109.748 60.0246 110.962 59.7167 112.354 59.7167C113.29 59.7167 114.162 59.8676 114.969 60.1694C115.782 60.4651 116.49 60.9116 117.094 61.5091C117.704 62.1066 118.178 62.8581 118.517 63.7636C118.856 64.6629 119.025 65.7162 119.025 66.9235V68.0046H107.041V65.5653H115.32C115.32 64.9986 115.197 64.4966 114.95 64.0593C114.704 63.6219 114.362 63.2801 113.925 63.0337C113.493 62.7811 112.991 62.6548 112.419 62.6548C111.821 62.6548 111.291 62.7934 110.829 63.0706C110.374 63.3417 110.016 63.7082 109.758 64.1701C109.499 64.626 109.366 65.1341 109.36 65.6947V68.0138C109.36 68.716 109.49 69.3228 109.748 69.834C110.013 70.3453 110.386 70.7395 110.866 71.0167C111.347 71.2939 111.917 71.4325 112.576 71.4325C113.013 71.4325 113.413 71.3709 113.777 71.2477C114.14 71.1245 114.451 70.9397 114.71 70.6933C114.969 70.4469 115.166 70.1451 115.301 69.7878L118.942 70.028C118.757 70.9027 118.378 71.6665 117.805 72.3195C117.239 72.9662 116.506 73.4713 115.606 73.8348C114.713 74.192 113.681 74.3706 112.511 74.3706ZM125.53 55.1708V74.0935H121.594V55.1708H125.53ZM128.683 79.4155V59.9014H132.563V62.2853H132.739C132.911 61.9034 133.161 61.5153 133.487 61.1211C133.82 60.7207 134.251 60.3881 134.781 60.1232C135.317 59.8522 135.982 59.7167 136.776 59.7167C137.811 59.7167 138.766 59.9877 139.641 60.5297C140.515 61.0656 141.215 61.8756 141.738 62.9598C142.262 64.0377 142.523 65.3898 142.523 67.0159C142.523 68.599 142.268 69.9356 141.757 71.0259C141.252 72.11 140.562 72.9324 139.687 73.4929C138.818 74.0473 137.845 74.3244 136.767 74.3244C136.003 74.3244 135.354 74.1982 134.818 73.9456C134.288 73.6931 133.854 73.3759 133.515 72.9939C133.176 72.6059 132.917 72.2147 132.739 71.8205H132.619V79.4155H128.683ZM132.535 66.9975C132.535 67.8413 132.653 68.5774 132.887 69.2057C133.121 69.834 133.459 70.3237 133.903 70.6748C134.346 71.0198 134.885 71.1922 135.52 71.1922C136.16 71.1922 136.703 71.0167 137.146 70.6656C137.59 70.3083 137.925 69.8155 138.153 69.1872C138.387 68.5528 138.504 67.8229 138.504 66.9975C138.504 66.1782 138.39 65.4575 138.162 64.8354C137.934 64.2133 137.599 63.7266 137.155 63.3755C136.712 63.0244 136.167 62.8489 135.52 62.8489C134.879 62.8489 134.337 63.0183 133.894 63.3571C133.456 63.6958 133.121 64.1763 132.887 64.7984C132.653 65.4206 132.535 66.1536 132.535 66.9975Z" fill="#E1E1E6"/>
</svg>
