<svg width="145" height="39" viewBox="0 0 145 39" fill="none" xmlns="http://www.w3.org/2000/svg">
<path d="M10.3072 18.458L6.9512 18.4284C6.86889 18.4276 6.78793 18.4332 6.70855 18.444C6.71441 18.3901 6.71771 18.3359 6.71832 18.2806L6.74775 14.9245C6.74848 14.8528 6.74384 14.7821 6.7359 14.7123L10.2774 14.7416C11.2044 14.7498 11.9622 14.0052 11.9705 13.0786L11.9999 9.72258C12.0081 8.79581 11.2635 8.0378 10.3369 8.0295L6.96317 8.00007C6.03651 7.99188 5.27863 8.73646 5.27045 9.66311L5.24077 13.0191C5.23992 13.0912 5.24456 13.1619 5.25274 13.2315L1.72869 13.2021C0.802036 13.1939 0.0441525 13.9387 0.0359704 14.8653L0.00617285 18.2214C-0.00200927 19.148 0.742563 19.9059 1.66922 19.9141L5.02523 19.9438C5.10778 19.9446 5.18851 19.939 5.26788 19.9281C5.26227 19.982 5.25897 20.0366 5.25836 20.0916L5.22868 23.4477C5.22844 23.4668 5.22917 23.4859 5.22966 23.5048L1.72234 23.4764C0.795808 23.4682 0.0378022 24.213 0.029498 25.1396L6.67939e-05 28.4957C-0.00811532 29.4223 0.736457 30.1802 1.66311 30.1884L5.03427 30.218C5.96117 30.2264 6.71905 29.4818 6.72723 28.5548L6.75666 25.1987C6.75691 25.1798 6.75642 25.1606 6.75593 25.1417L10.2477 25.17C11.1746 25.1784 11.9325 24.4338 11.9407 23.5069L11.9701 20.1511C11.9784 19.2241 11.2339 18.4663 10.3072 18.458Z" fill="#DB364A"/>
<path d="M30.5357 16.2597C30.4713 15.6106 30.1951 15.1063 29.7069 14.7469C29.2187 14.3875 28.5562 14.2078 27.7193 14.2078C27.1507 14.2078 26.6706 14.2882 26.279 14.4492C25.8873 14.6047 25.5869 14.822 25.3777 15.101C25.1739 15.3799 25.0719 15.6964 25.0719 16.0505C25.0612 16.3455 25.1229 16.603 25.257 16.823C25.3965 17.0429 25.5869 17.2334 25.8283 17.3943C26.0697 17.5499 26.3487 17.6867 26.6652 17.8047C26.9817 17.9173 27.3197 18.0139 27.6791 18.0944L29.1597 18.4484C29.8786 18.6094 30.5384 18.824 31.1392 19.0922C31.7401 19.3604 32.2604 19.6903 32.7003 20.0819C33.1402 20.4736 33.4809 20.9349 33.7223 21.466C33.969 21.9971 34.0951 22.606 34.1005 23.2926C34.0951 24.3012 33.8376 25.1756 33.328 25.9159C32.8237 26.6508 32.0941 27.2221 31.1392 27.6298C30.1897 28.0322 29.0444 28.2334 27.7032 28.2334C26.3728 28.2334 25.2141 28.0295 24.227 27.6218C23.2453 27.2141 22.4782 26.6106 21.9256 25.8113C21.3785 25.0066 21.0914 24.0115 21.0646 22.8259H24.4362C24.4738 23.3784 24.632 23.8398 24.911 24.21C25.1953 24.5747 25.5735 24.851 26.0456 25.0388C26.523 25.2212 27.0622 25.3124 27.663 25.3124C28.2531 25.3124 28.7654 25.2265 29.1999 25.0549C29.6398 24.8832 29.9805 24.6445 30.2219 24.3387C30.4633 24.0329 30.584 23.6815 30.584 23.2846C30.584 22.9144 30.474 22.6033 30.2541 22.3511C30.0395 22.099 29.723 21.8844 29.3046 21.7074C28.8915 21.5304 28.3845 21.3694 27.7837 21.2246L25.9893 20.774C24.5999 20.436 23.5028 19.9076 22.6981 19.1887C21.8934 18.4699 21.4938 17.5016 21.4992 16.2838C21.4938 15.286 21.7593 14.4143 22.2958 13.6686C22.8376 12.923 23.5806 12.3409 24.5248 11.9225C25.4689 11.504 26.5418 11.2948 27.7435 11.2948C28.9666 11.2948 30.0341 11.504 30.9461 11.9225C31.8634 12.3409 32.5769 12.923 33.0866 13.6686C33.5962 14.4143 33.8591 15.278 33.8751 16.2597H30.5357ZM38.496 32.635C38.0615 32.635 37.6538 32.6001 37.2729 32.5304C36.8974 32.466 36.5862 32.3828 36.3395 32.2809L37.112 29.722C37.5143 29.8454 37.8764 29.9125 38.1983 29.9232C38.5255 29.9339 38.8072 29.8588 39.0432 29.6979C39.2846 29.5369 39.4804 29.2633 39.6306 28.8771L39.8318 28.3541L35.398 15.6401H39.003L41.5619 24.7169H41.6906L44.2736 15.6401H47.9027L43.0988 29.3358C42.8681 30.001 42.5543 30.5803 42.1573 31.0739C41.7657 31.5728 41.2695 31.9563 40.6687 32.2246C40.0678 32.4982 39.3436 32.635 38.496 32.635ZM53.0849 20.8544V28H49.6569V15.6401H52.924V17.8208H53.0688C53.3424 17.1019 53.8011 16.5333 54.4448 16.1149C55.0885 15.6911 55.8691 15.4792 56.7864 15.4792C57.6447 15.4792 58.3931 15.6669 59.0315 16.0424C59.6699 16.418 60.1661 16.9544 60.5201 17.6518C60.8742 18.3438 61.0512 19.17 61.0512 20.1302V28H57.6233V20.7418C57.6287 19.9854 57.4355 19.3953 57.0439 18.9715C56.6523 18.5423 56.1132 18.3277 55.4265 18.3277C54.9652 18.3277 54.5575 18.427 54.2034 18.6255C53.8547 18.824 53.5811 19.1136 53.3826 19.4945C53.1895 19.87 53.0903 20.3233 53.0849 20.8544ZM70.3272 15.6401V18.2151H62.8839V15.6401H70.3272ZM64.5737 12.6789H68.0017V24.2019C68.0017 24.5184 68.0499 24.7652 68.1465 24.9422C68.2431 25.1139 68.3772 25.2346 68.5488 25.3043C68.7259 25.3741 68.9297 25.4089 69.1604 25.4089C69.3213 25.4089 69.4823 25.3955 69.6432 25.3687C69.8041 25.3365 69.9275 25.3124 70.0134 25.2963L70.5525 27.8471C70.3808 27.9008 70.1394 27.9624 69.8283 28.0322C69.5171 28.1073 69.1389 28.1529 68.6937 28.169C67.8675 28.2012 67.1433 28.0912 66.521 27.8391C65.9041 27.5869 65.424 27.1953 65.0807 26.6642C64.7373 26.1331 64.5684 25.4626 64.5737 24.6525V12.6789ZM78.0602 28.2414C76.7888 28.2414 75.6944 27.9839 74.7771 27.4689C73.8651 26.9486 73.1623 26.2136 72.6688 25.2641C72.1753 24.3092 71.9285 23.18 71.9285 21.8764C71.9285 20.605 72.1753 19.4892 72.6688 18.5289C73.1623 17.5687 73.8571 16.8203 74.7529 16.2838C75.6542 15.7474 76.711 15.4792 77.9234 15.4792C78.7388 15.4792 79.4979 15.6106 80.2006 15.8735C80.9087 16.131 81.5257 16.5199 82.0514 17.0402C82.5825 17.5606 82.9955 18.2151 83.2906 19.0037C83.5856 19.7869 83.7332 20.7042 83.7332 21.7557V22.6972H73.2965V20.5728H80.5064C80.5064 20.0793 80.3991 19.642 80.1845 19.2612C79.9699 18.8803 79.6722 18.5826 79.2913 18.368C78.9158 18.148 78.4786 18.0381 77.9797 18.0381C77.4593 18.0381 76.998 18.1588 76.5957 18.4002C76.1987 18.6362 75.8875 18.9554 75.6622 19.3577C75.4369 19.7547 75.3216 20.1973 75.3162 20.6855V22.7052C75.3162 23.3168 75.4289 23.8452 75.6542 24.2904C75.8849 24.7357 76.2094 25.079 76.6278 25.3204C77.0463 25.5618 77.5425 25.6825 78.1165 25.6825C78.4974 25.6825 78.8461 25.6289 79.1626 25.5216C79.4791 25.4143 79.75 25.2534 79.9753 25.0388C80.2006 24.8242 80.3723 24.5613 80.4903 24.2502L83.6608 24.4594C83.4998 25.2212 83.1699 25.8864 82.671 26.455C82.1775 27.0183 81.5391 27.4582 80.7559 27.7747C79.978 28.0858 79.0794 28.2414 78.0602 28.2414ZM85.9702 28V15.6401H89.2935V17.7966H89.4223C89.6476 17.0295 90.0258 16.4501 90.5569 16.0585C91.088 15.6616 91.6995 15.4631 92.3915 15.4631C92.5632 15.4631 92.7483 15.4738 92.9468 15.4953C93.1453 15.5167 93.3196 15.5462 93.4698 15.5838V18.6255C93.3089 18.5772 93.0862 18.5343 92.8019 18.4967C92.5176 18.4592 92.2574 18.4404 92.0214 18.4404C91.5171 18.4404 91.0665 18.5504 90.6695 18.7703C90.2779 18.9849 89.9668 19.2853 89.7361 19.6716C89.5108 20.0578 89.3981 20.5031 89.3981 21.0073V28H85.9702Z" fill="#DB364A"/>
<path d="M95.3065 28V11.5201H98.7908V18.3197H105.864V11.5201H109.34V28H105.864V21.1924H98.7908V28H95.3065ZM117.781 28.2414C116.51 28.2414 115.415 27.9839 114.498 27.4689C113.586 26.9486 112.883 26.2136 112.39 25.2641C111.896 24.3092 111.65 23.18 111.65 21.8764C111.65 20.605 111.896 19.4892 112.39 18.5289C112.883 17.5687 113.578 16.8203 114.474 16.2838C115.375 15.7474 116.432 15.4792 117.644 15.4792C118.46 15.4792 119.219 15.6106 119.922 15.8735C120.63 16.131 121.247 16.5199 121.772 17.0402C122.304 17.5606 122.717 18.2151 123.012 19.0037C123.307 19.7869 123.454 20.7042 123.454 21.7557V22.6972H113.018V20.5728H120.227C120.227 20.0793 120.12 19.642 119.906 19.2612C119.691 18.8803 119.393 18.5826 119.012 18.368C118.637 18.148 118.2 18.0381 117.701 18.0381C117.18 18.0381 116.719 18.1588 116.317 18.4002C115.92 18.6362 115.609 18.9554 115.383 19.3577C115.158 19.7547 115.043 20.1973 115.037 20.6855V22.7052C115.037 23.3168 115.15 23.8452 115.375 24.2904C115.606 24.7357 115.93 25.079 116.349 25.3204C116.767 25.5618 117.264 25.6825 117.838 25.6825C118.218 25.6825 118.567 25.6289 118.884 25.5216C119.2 25.4143 119.471 25.2534 119.696 25.0388C119.922 24.8242 120.093 24.5613 120.211 24.2502L123.382 24.4594C123.221 25.2212 122.891 25.8864 122.392 26.455C121.899 27.0183 121.26 27.4582 120.477 27.7747C119.699 28.0858 118.8 28.2414 117.781 28.2414ZM129.119 11.5201V28H125.691V11.5201H129.119ZM131.865 32.635V15.6401H135.245V17.7162H135.398C135.548 17.3836 135.765 17.0456 136.049 16.7023C136.339 16.3536 136.715 16.0639 137.176 15.8332C137.643 15.5972 138.222 15.4792 138.914 15.4792C139.815 15.4792 140.647 15.7152 141.409 16.1873C142.17 16.654 142.779 17.3594 143.235 18.3036C143.691 19.2424 143.919 20.4199 143.919 21.8361C143.919 23.2148 143.697 24.3789 143.251 25.3285C142.811 26.2726 142.211 26.9888 141.449 27.477C140.693 27.9598 139.845 28.2012 138.906 28.2012C138.241 28.2012 137.675 28.0912 137.208 27.8713C136.747 27.6513 136.369 27.375 136.074 27.0424C135.779 26.7045 135.553 26.3638 135.398 26.0205H135.293V32.635H131.865ZM135.221 21.8201C135.221 22.555 135.323 23.1961 135.526 23.7432C135.73 24.2904 136.025 24.7169 136.412 25.0227C136.798 25.3231 137.267 25.4733 137.82 25.4733C138.378 25.4733 138.85 25.3204 139.236 25.0146C139.622 24.7035 139.915 24.2743 140.113 23.7271C140.317 23.1746 140.419 22.5389 140.419 21.8201C140.419 21.1066 140.32 20.4789 140.121 19.9371C139.923 19.3953 139.63 18.9715 139.244 18.6657C138.858 18.3599 138.383 18.207 137.82 18.207C137.262 18.207 136.79 18.3546 136.404 18.6496C136.023 18.9447 135.73 19.3631 135.526 19.9049C135.323 20.4467 135.221 21.0851 135.221 21.8201Z" fill="#E1E1E6"/>
</svg>
